<?xml version="1.0" standalone="no"?>
<!DOCTYPE svg PUBLIC "-//W3C//DTD SVG 20010904//EN"
 "http://www.w3.org/TR/2001/REC-SVG-20010904/DTD/svg10.dtd">
<svg version="1.0" xmlns="http://www.w3.org/2000/svg"
 width="256.000000pt" height="256.000000pt" viewBox="0 0 256.000000 256.000000"
 preserveAspectRatio="xMidYMid meet">

<g transform="translate(0.000000,256.000000) scale(0.100000,-0.100000)"
fill="#000000" stroke="none">
<path d="M1720 2314 c0 -16 -4 -44 -10 -63 -5 -19 -6 -40 -1 -49 5 -9 11 11
15 58 4 39 5 74 2 78 -3 3 -6 -8 -6 -24z"/>
<path d="M915 2260 c10 -11 20 -20 23 -20 3 0 -3 9 -13 20 -10 11 -20 20 -23
20 -3 0 3 -9 13 -20z"/>
<path d="M1637 2170 c3 -36 7 -67 9 -69 8 -9 2 95 -6 114 -5 12 -7 -5 -3 -45z"/>
<path d="M1781 2194 c0 -11 3 -14 6 -6 3 7 2 16 -1 19 -3 4 -6 -2 -5 -13z"/>
<path d="M1729 2173 c-13 -16 -12 -17 4 -4 16 13 21 21 13 21 -2 0 -10 -8 -17
-17z"/>
<path d="M1692 2142 c-11 -25 -11 -25 4 -10 9 9 15 21 13 27 -2 6 -10 -2 -17
-17z"/>
<path d="M1082 2121 c-6 -24 -8 -49 -6 -56 3 -7 1 -16 -5 -20 -6 -3 -11 -14
-10 -23 0 -19 22 22 24 48 1 8 3 26 5 40 2 24 3 24 10 -5 7 -27 8 -28 8 -5 0
14 -3 34 -7 44 -6 16 -10 12 -19 -23z"/>
<path d="M1015 2140 c-3 -6 1 -7 9 -4 18 7 21 14 7 14 -6 0 -13 -4 -16 -10z"/>
<path d="M1000 2080 c0 -5 5 -10 11 -10 5 0 7 5 4 10 -3 6 -8 10 -11 10 -2 0
-4 -4 -4 -10z"/>
<path d="M1570 2075 c-7 -9 -11 -17 -9 -20 3 -2 10 5 17 15 14 24 10 26 -8 5z"/>
<path d="M1743 2069 c-18 -5 -35 -14 -38 -19 -3 -6 2 -7 12 -4 10 3 -2 -13
-26 -35 -24 -23 -53 -41 -65 -42 -20 0 -20 -1 -2 -8 13 -5 25 -2 36 8 8 9 40
37 69 64 29 26 52 47 50 46 -2 0 -18 -5 -36 -10z"/>
<path d="M1112 2035 c-1 -22 -7 -56 -13 -75 -19 -63 -27 -154 -15 -170 10 -13
9 -13 -8 0 -18 14 -19 13 -13 -3 4 -10 7 -22 7 -27 0 -4 14 -13 30 -20 17 -7
30 -16 30 -20 0 -3 10 -6 23 -4 12 1 25 3 30 3 4 1 7 12 7 26 0 20 -8 28 -40
41 -63 25 -75 67 -44 156 8 25 13 66 11 90 l-4 43 -1 -40z"/>
<path d="M850 2057 c0 -3 12 -12 26 -22 15 -9 23 -12 20 -6 -7 11 -46 35 -46
28z"/>
<path d="M1350 2030 c0 -5 -6 -7 -14 -4 -8 3 -17 1 -21 -5 -3 -7 0 -8 9 -5 12
4 9 -6 -9 -43 -18 -33 -20 -42 -7 -27 10 12 28 24 39 28 12 4 27 14 34 24 11
14 11 15 -1 5 -8 -7 -20 -13 -28 -13 -20 0 -9 23 19 37 24 13 24 13 2 13 -13
0 -23 -4 -23 -10z"/>
<path d="M1457 2009 c-26 -17 -56 -43 -67 -57 -11 -15 -25 -33 -31 -40 -6 -7
-14 -25 -19 -40 -4 -17 -13 -26 -24 -25 -11 0 -15 -4 -12 -13 3 -8 9 -21 12
-29 11 -27 -22 -16 -46 15 -12 16 -27 27 -31 24 -5 -3 -9 2 -9 10 0 9 -4 16
-10 16 -12 0 -13 -40 -1 -58 4 -8 12 -13 17 -12 4 1 16 -18 26 -42 16 -38 18
-39 12 -10 -6 37 8 43 24 10 6 -13 11 -17 11 -9 1 11 4 11 16 1 13 -10 15 -9
15 9 0 13 6 21 16 21 10 0 14 5 10 15 -3 9 1 18 9 21 8 4 15 15 15 25 0 10 5
19 10 19 6 0 10 8 10 18 0 17 38 80 80 135 27 34 24 34 -33 -4z"/>
<path d="M1669 2023 c-13 -16 -12 -17 4 -4 9 7 17 15 17 17 0 8 -8 3 -21 -13z"/>
<path d="M820 2020 c35 -24 54 -31 30 -11 -14 11 -29 21 -35 21 -5 0 -3 -5 5
-10z"/>
<path d="M959 2006 c14 -15 26 -26 28 -26 9 0 -24 40 -37 45 -8 4 -4 -5 9 -19z"/>
<path d="M997 2019 c7 -7 15 -10 18 -7 3 3 -2 9 -12 12 -14 6 -15 5 -6 -5z"/>
<path d="M1496 1993 c-6 -14 -5 -15 5 -6 7 7 10 15 7 18 -3 3 -9 -2 -12 -12z"/>
<path d="M1239 1983 c-13 -16 -12 -17 4 -4 9 7 17 15 17 17 0 8 -8 3 -21 -13z"/>
<path d="M1598 1993 c6 -2 18 -2 25 0 6 3 1 5 -13 5 -14 0 -19 -2 -12 -5z"/>
<path d="M1504 1972 c-16 -14 -18 -20 -9 -29 7 -7 17 -8 26 -2 11 7 10 9 -5 9
-18 0 -18 1 -1 20 22 24 17 25 -11 2z"/>
<path d="M860 1955 c13 -14 26 -25 28 -25 3 0 -5 11 -18 25 -13 14 -26 25 -28
25 -3 0 5 -11 18 -25z"/>
<path d="M1006 1965 c4 -8 11 -15 16 -15 6 0 5 6 -2 15 -7 8 -14 15 -16 15 -2
0 -1 -7 2 -15z"/>
<path d="M1060 1975 c0 -5 5 -17 10 -25 5 -8 10 -10 10 -5 0 6 -5 17 -10 25
-5 8 -10 11 -10 5z"/>
<path d="M908 1953 c7 -3 16 -2 19 1 4 3 -2 6 -13 5 -11 0 -14 -3 -6 -6z"/>
<path d="M960 1956 c0 -2 7 -7 16 -10 8 -3 12 -2 9 4 -6 10 -25 14 -25 6z"/>
<path d="M1203 1941 c-12 -10 -19 -21 -16 -25 4 -3 -3 -6 -15 -6 -15 0 -20 -5
-16 -15 4 -8 1 -15 -7 -15 -7 0 -9 -3 -6 -7 8 -7 42 21 69 60 23 32 21 33 -9
8z"/>
<path d="M1670 1939 c0 -5 9 -9 20 -9 11 0 20 2 20 4 0 2 -9 6 -20 9 -11 3
-20 1 -20 -4z"/>
<path d="M1054 1876 c1 -36 3 -63 5 -61 8 9 11 97 3 111 -5 8 -8 -12 -8 -50z"/>
<path d="M998 1923 c7 -3 16 -2 19 1 4 3 -2 6 -13 5 -11 0 -14 -3 -6 -6z"/>
<path d="M1483 1920 c2 -8 12 -16 23 -17 13 -2 15 -1 4 4 -8 3 -19 11 -23 17
-6 7 -7 6 -4 -4z"/>
<path d="M1571 1927 c2 -1 15 -11 29 -22 17 -14 21 -15 12 -3 -12 15 -10 17
20 21 25 3 21 4 -16 5 -27 1 -47 1 -45 -1z"/>
<path d="M850 1916 c0 -2 7 -9 15 -16 13 -11 14 -10 9 4 -5 14 -24 23 -24 12z"/>
<path d="M890 1916 c0 -2 14 -6 30 -8 17 -3 30 -1 30 4 0 4 -13 8 -30 8 -16 0
-30 -2 -30 -4z"/>
<path d="M1630 1880 c0 -5 5 -10 11 -10 5 0 7 5 4 10 -3 6 -8 10 -11 10 -2 0
-4 -4 -4 -10z"/>
<path d="M928 1873 c6 -2 18 -2 25 0 6 3 1 5 -13 5 -14 0 -19 -2 -12 -5z"/>
<path d="M986 1863 c-26 -14 -27 -16 -12 -25 10 -5 20 -7 23 -4 4 3 0 6 -8 6
-8 0 -4 8 11 20 30 24 25 25 -14 3z"/>
<path d="M1485 1870 c4 -6 -5 -10 -21 -10 -26 0 -27 0 -9 -20 20 -23 17 -24
-20 -10 -23 9 -25 8 -15 -9 6 -12 6 -21 0 -23 -5 -2 7 -14 28 -27 l36 -24 -27
33 c-15 18 -26 34 -24 36 2 2 18 -1 37 -6 l33 -9 -24 26 -24 26 32 -5 c31 -4
32 -4 16 14 -17 19 -28 24 -18 8z"/>
<path d="M1172 1833 c-17 -30 -15 -37 4 -19 8 9 14 22 11 29 -2 7 -8 4 -15
-10z"/>
<path d="M1582 1834 c10 -10 20 -16 22 -13 3 3 -5 11 -17 18 -21 13 -21 12 -5
-5z"/>
<path d="M883 1823 c-13 -8 -23 -21 -23 -27 0 -8 3 -7 8 1 4 6 21 19 37 27 17
9 23 16 15 15 -8 0 -25 -7 -37 -16z"/>
<path d="M986 1782 l-19 -27 26 24 c28 26 32 31 20 31 -5 0 -17 -13 -27 -28z"/>
<path d="M1190 1805 c0 -5 9 -23 20 -40 26 -39 26 -25 0 17 -11 18 -20 29 -20
23z"/>
<path d="M908 1783 c23 -5 23 -5 5 -26 -16 -18 -14 -18 15 3 17 13 32 24 32
25 0 0 -17 1 -37 2 -21 0 -28 -1 -15 -4z"/>
<path d="M1407 1763 c6 -16 5 -17 -13 -3 -17 13 -18 13 -7 0 6 -8 26 -24 44
-34 l32 -19 -27 36 c-31 41 -39 46 -29 20z"/>
<path d="M1524 1761 c3 -5 15 -7 26 -4 28 7 25 13 -6 13 -14 0 -23 -4 -20 -9z"/>
<path d="M1230 1721 c0 -6 5 -13 10 -16 6 -3 10 1 10 9 0 9 -4 16 -10 16 -5 0
-10 -4 -10 -9z"/>
<path d="M1351 1713 c-1 -13 3 -23 9 -23 5 0 14 -15 19 -32 10 -33 10 -33 8
10 -3 44 1 50 22 30 10 -11 11 -9 5 5 -5 13 -13 17 -30 13 -13 -4 -24 -1 -27
7 -3 6 -6 2 -6 -10z"/>
<path d="M945 1710 c4 -6 11 -8 16 -5 14 9 11 15 -7 15 -8 0 -12 -5 -9 -10z"/>
<path d="M1018 1713 c-9 -2 -19 -11 -22 -19 -4 -11 -1 -11 19 2 14 9 25 18 25
20 0 2 -1 3 -2 3 -2 -1 -10 -3 -20 -6z"/>
<path d="M1550 1710 c-12 -7 -10 -9 7 -7 12 0 19 5 17 9 -6 10 -6 10 -24 -2z"/>
<path d="M1065 1690 c-4 -6 -11 -8 -16 -5 -5 4 -9 1 -9 -4 0 -16 16 -13 30 4
7 8 10 15 7 15 -3 0 -9 -5 -12 -10z"/>
<path d="M1306 1656 c-4 -27 -5 -50 -2 -54 3 -3 6 7 6 21 0 29 20 38 21 10 0
-15 2 -15 9 2 5 11 9 27 9 35 -1 12 -2 12 -6 1 -4 -10 -9 -8 -18 9 -12 22 -13
20 -19 -24z"/>
<path d="M1098 1658 c-16 -17 -28 -35 -28 -40 0 -5 14 7 31 27 39 44 35 55 -3
13z"/>
<path d="M1451 1664 c0 -11 3 -14 6 -6 3 7 2 16 -1 19 -3 4 -6 -2 -5 -13z"/>
<path d="M920 1650 c0 -6 7 -10 15 -10 8 0 15 2 15 4 0 2 -7 6 -15 10 -8 3
-15 1 -15 -4z"/>
<path d="M966 1652 c6 -4 13 -14 16 -22 3 -10 6 -8 10 8 5 18 2 22 -15 22 -13
0 -17 -3 -11 -8z"/>
<path d="M1506 1643 c-6 -14 -5 -15 5 -6 7 7 10 15 7 18 -3 3 -9 -2 -12 -12z"/>
<path d="M1127 1623 c-5 -26 -4 -26 9 -8 16 22 18 35 5 35 -5 0 -11 -12 -14
-27z"/>
<path d="M1438 1622 c5 -9 12 -24 15 -32 3 -9 6 -4 6 11 1 15 -6 29 -14 33
-12 4 -13 2 -7 -12z"/>
<path d="M1007 1603 c-16 -16 -19 -16 -27 -3 -8 12 -10 10 -10 -8 0 -22 1 -22
30 -7 17 9 30 20 30 25 0 14 -3 13 -23 -7z"/>
<path d="M1157 1520 c-26 -52 -47 -104 -46 -115 1 -16 2 -15 8 5 5 14 27 62
51 107 23 45 41 85 39 90 -2 5 -25 -34 -52 -87z"/>
<path d="M1133 1572 l-32 -37 0 28 c-1 26 -3 27 -22 15 -12 -7 -31 -19 -43
-25 -14 -9 -16 -13 -6 -13 9 0 26 7 38 16 21 15 22 14 22 -12 l0 -27 25 23
c14 13 25 19 25 14 1 -5 8 4 16 19 22 41 14 41 -23 -1z"/>
<path d="M1257 1573 c-3 -21 -8 -47 -12 -58 -3 -11 3 -4 14 15 21 36 28 80 12
80 -4 0 -11 -17 -14 -37z"/>
<path d="M1377 1586 c-9 -23 -9 -28 2 -22 5 3 11 -1 15 -9 3 -8 11 -15 17 -15
8 0 7 6 -3 18 -9 9 -17 24 -20 31 -3 12 -6 11 -11 -3z"/>
<path d="M1208 1550 c-9 -22 -15 -40 -13 -40 8 0 36 61 33 70 -2 5 -11 -9 -20
-30z"/>
<path d="M1295 1540 c-10 -22 -16 -43 -13 -46 3 -3 10 9 16 25 13 38 28 40 36
5 6 -21 9 -24 21 -14 8 7 15 20 15 28 0 13 -3 12 -14 -3 -13 -18 -14 -17 -21
13 -9 42 -18 40 -40 -8z"/>
<path d="M1089 1484 c-18 -19 -65 -61 -102 -92 -38 -31 -86 -83 -107 -114 -75
-113 -74 -264 2 -333 30 -27 31 -28 9 -3 l-24 27 32 -4 32 -4 -33 38 c-18 21
-36 36 -39 35 -3 -2 -5 29 -5 69 1 52 7 86 24 121 12 27 25 47 27 44 3 -3 -2
-33 -11 -67 -14 -56 -13 -87 2 -144 3 -9 10 -15 15 -12 5 3 6 0 3 -8 -3 -8 6
-21 20 -31 33 -21 33 -7 1 40 -14 20 -25 51 -25 68 0 46 26 139 55 194 26 50
122 161 109 127 -3 -11 -13 -36 -20 -55 -15 -40 -18 -118 -5 -138 5 -8 8 17 7
60 0 60 4 81 24 118 27 50 50 100 46 100 -1 0 -18 -16 -37 -36z m-198 -491
c13 -15 17 -22 7 -15 -12 10 -18 10 -23 1 -6 -8 -10 -7 -17 5 -8 13 -4 36 6
36 1 0 13 -12 27 -27z"/>
<path d="M1164 1463 c-26 -53 -32 -190 -9 -218 15 -19 16 -18 8 15 -13 59 -8
162 11 198 10 19 15 36 13 38 -2 3 -13 -12 -23 -33z"/>
<path d="M1222 1468 c-6 -13 -11 -17 -11 -10 -1 6 -4 12 -8 12 -5 0 -7 -28 -6
-62 1 -46 0 -56 -6 -38 -7 19 -9 12 -10 -35 -1 -71 8 -90 38 -80 22 7 27 20
11 30 -5 3 -10 29 -10 56 0 53 14 59 25 10 3 -16 15 -37 27 -47 l20 -19 -20
35 c-11 19 -23 45 -26 57 -6 19 -3 22 30 25 23 2 39 9 42 18 4 12 2 13 -9 3
-34 -33 -86 -3 -75 42 8 31 3 32 -12 3z"/>
<path d="M1570 1258 c-68 -46 -153 -111 -188 -144 -56 -54 -63 -64 -53 -82 18
-33 36 -32 123 3 86 36 108 41 108 26 0 -27 -219 -315 -403 -529 -35 -40 -71
-86 -81 -102 l-17 -30 55 24 c78 34 112 63 203 169 267 310 399 530 342 569
-8 5 -36 6 -62 3 l-48 -6 58 59 c50 51 102 122 90 122 -2 0 -59 -37 -127 -82z"/>
<path d="M983 1275 c-21 -54 -22 -80 -8 -130 l14 -50 -5 55 -5 55 16 -34 c22
-48 30 -31 17 36 -7 32 -13 67 -14 78 -3 16 -5 15 -15 -10z"/>
<path d="M1225 1229 c-60 -28 -124 -56 -142 -64 -40 -19 -41 -20 -97 -188 -25
-75 -78 -221 -117 -324 -77 -202 -94 -288 -65 -312 25 -21 45 -6 70 51 19 43
37 63 92 103 38 27 116 99 174 160 156 162 202 208 234 230 51 36 10 90 -47
60 -14 -7 -49 -21 -78 -30 -30 -10 -66 -24 -81 -32 -33 -16 -37 -4 -7 23 40
35 207 245 231 290 18 34 21 48 12 61 -19 31 -64 24 -179 -28z m45 -64 c0 -8
-147 -180 -180 -210 -26 -24 -31 -26 -25 -10 4 11 14 57 23 102 l16 81 75 20
c93 23 91 23 91 17z m-126 -397 c-135 -145 -226 -239 -223 -231 2 5 21 57 43
116 34 94 43 110 75 130 28 18 101 39 155 46 5 1 -17 -27 -50 -61z"/>
<path d="M1675 1040 c-5 -15 4 -32 35 -68 23 -26 48 -59 56 -74 21 -41 25 -34
8 14 -17 50 -57 120 -78 137 -12 10 -16 8 -21 -9z"/>
<path d="M1490 1020 c-9 -6 -10 -10 -3 -10 6 0 15 5 18 10 8 12 4 12 -15 0z"/>
<path d="M1276 996 c-24 -38 -21 -47 14 -34 39 13 43 22 21 42 -17 16 -19 15
-35 -8z"/>
<path d="M1407 982 c-3 -4 4 -18 15 -32 16 -19 21 -21 28 -10 6 10 3 21 -7 32
-17 19 -29 23 -36 10z"/>
<path d="M1617 940 c-17 -28 -15 -35 6 -31 5 1 6 -3 3 -7 -3 -5 8 -34 25 -63
17 -30 28 -45 25 -34 -7 24 8 53 18 36 9 -15 28 -3 20 12 -6 13 12 -9 34 -40
7 -10 3 1 -10 25 -12 24 -29 49 -38 55 -13 11 -13 10 0 -8 14 -18 14 -19 -2
-7 -9 8 -15 19 -12 25 3 9 -39 67 -49 67 -2 0 -11 -13 -20 -30z m38 -59 c-3
-5 -1 -12 5 -16 5 -3 10 -14 10 -23 -1 -12 -5 -10 -14 8 -13 22 -13 40 0 40 3
0 3 -4 -1 -9z"/>
<path d="M933 943 c-3 -10 -8 -22 -11 -27 -3 -5 0 -6 5 -3 11 7 25 47 17 47
-3 0 -7 -8 -11 -17z"/>
<path d="M1539 823 c-12 -16 -12 -17 2 -6 9 7 20 9 24 5 5 -4 5 -1 1 6 -9 16
-11 15 -27 -5z"/>
<path d="M1310 793 c-19 -21 -26 -30 -14 -20 11 9 23 15 26 12 8 -8 30 23 26
35 -2 6 -19 -6 -38 -27z"/>
<path d="M1590 770 c11 -22 23 -40 25 -40 3 0 -4 18 -15 40 -11 22 -23 40 -25
40 -3 0 4 -18 15 -40z"/>
<path d="M1299 753 c-13 -16 -12 -17 4 -4 16 13 21 21 13 21 -2 0 -10 -8 -17
-17z"/>
<path d="M1435 689 c-4 -6 -5 -12 -2 -15 2 -3 7 2 10 11 7 17 1 20 -8 4z"/>
</g>
</svg>
